<svg width="80" height="137" viewBox="0 0 80 137" fill="none" xmlns="http://www.w3.org/2000/svg">
<path d="M4.847 18.1192C6.65437 9.71609 -0.0973076 111.187 4.847 120.119C9.7913 129.051 74.8401 127.614 76.347 120.119C76.1812 114.057 78.4992 25.3608 75.9729 19.1192M4.847 18.1192C3.03963 26.5224 77.6913 25.7249 75.347 19.1192C73.0026 12.5136 75.7904 18.6685 75.9729 19.1192M4.847 18.1192L8.847 11.1192M8.847 11.1192C20 16.5137 54.5 18.1192 70.347 11.1192C70.9844 10.692 71.4849 10.3062 71.847 9.94355M8.847 11.1192C8.847 11.1192 6.5 6.65891 8.847 6.11919C31.0024 1.02422 62.847 3.01369 70.347 6.11924C72.347 6.94738 73.1405 8.64798 71.847 9.94355M71.847 9.94355L75.9729 19.1192M7.847 123.119C31.2303 127.411 45.2261 127.708 72.347 123.119C72.3056 126.711 70.9213 129.543 62.5 132.514C54.5 135.336 28 134.514 17.5 132.514C9.59543 130.478 9.96868 127.33 7.847 123.119Z" stroke="#022C22" stroke-width="5"/>
</svg>
