<svg width="318" height="102" viewBox="0 0 318 102" fill="none" xmlns="http://www.w3.org/2000/svg">
<path fill-rule="evenodd" clip-rule="evenodd" d="M237 66.0043C237 66.0021 237 66 240 66C243 66 243 65.9982 243 65.9965L243 65.9936L243 65.99C243 65.9893 243 65.989 243 65.989C243 65.989 243 65.9897 243 65.991L243.001 66.0253C243.001 66.0623 243.003 66.127 243.007 66.2175C243.015 66.3986 243.032 66.6818 243.068 67.0506C243.14 67.7898 243.285 68.864 243.58 70.1444C244.172 72.718 245.347 76.0389 247.66 79.1564C252.102 85.1456 261.383 91.2232 281.556 88.2011L282.444 94.1349C260.617 97.4049 248.898 90.8984 242.84 82.7307C239.903 78.7696 238.453 74.6188 237.733 71.4903C237.371 69.9196 237.189 68.5851 237.096 67.6284C237.05 67.1493 237.026 66.7627 237.013 66.4861C237.007 66.3476 237.004 66.2365 237.002 66.1549C237.001 66.114 237.001 66.0805 237 66.0546L237 66.0215L237 66.0093L237 66.0043Z" fill="#022C22"/>
<path fill-rule="evenodd" clip-rule="evenodd" d="M233.165 46.9813L238.835 45.0187L242.376 55.2472L253.083 51.8102L254.917 57.5231L238.624 62.7528L233.165 46.9813Z" fill="#022C22"/>
<path fill-rule="evenodd" clip-rule="evenodd" d="M278.491 89.9437L273.048 85.2778L276.952 80.7222L285.509 88.0563L280.632 101.991L274.968 100.009L278.491 89.9437Z" fill="#022C22"/>
<path fill-rule="evenodd" clip-rule="evenodd" d="M289.44 89.2129C289.439 89.2139 289.437 89.2149 288.015 86.5735C286.592 83.9321 286.591 83.9329 286.589 83.9337L286.587 83.935L286.584 83.9365C286.583 83.9369 286.583 83.937 286.584 83.9367C286.584 83.9365 286.585 83.9362 286.585 83.9357L286.617 83.9183C286.65 83.8996 286.707 83.8667 286.786 83.8197C286.944 83.7256 287.189 83.575 287.502 83.3673C288.128 82.9511 289.022 82.3099 290.038 81.4386C292.079 79.688 294.552 77.0616 296.378 73.5259C299.9 66.7066 301.419 55.7234 290.623 39.642L295.605 36.2979C307.42 53.899 306.389 67.2175 301.709 76.2793C299.434 80.6842 296.392 83.8933 293.944 85.9929C292.715 87.0468 291.621 87.8344 290.821 88.3658C290.42 88.6318 290.091 88.8347 289.855 88.9756C289.736 89.0461 289.64 89.1012 289.57 89.141C289.535 89.1609 289.506 89.177 289.484 89.1893L289.455 89.2049L289.445 89.2106L289.44 89.2129Z" fill="#022C22"/>
<path fill-rule="evenodd" clip-rule="evenodd" d="M285.532 30.9928C285.534 30.9936 285.536 30.9943 284.254 33.7068C282.973 36.4193 282.974 36.4199 282.975 36.4205L282.977 36.4213C282.978 36.4216 282.978 36.4218 282.978 36.4219L282.972 36.4191L282.926 36.3981C282.881 36.3776 282.806 36.3443 282.703 36.3002C282.498 36.2121 282.183 36.0813 281.77 35.9241C280.944 35.6091 279.737 35.1909 278.254 34.7966C275.267 34.0026 271.269 33.3348 267.052 33.7256C262.87 34.1133 258.509 35.5355 254.631 38.9008C250.745 42.2728 247.118 47.7908 244.753 56.7565L238.951 55.2262C241.549 45.3778 245.704 38.7031 250.699 34.369C255.701 30.0284 261.321 28.2311 266.498 27.7513C271.642 27.2745 276.383 28.0909 279.795 28.998C281.512 29.4542 282.919 29.9408 283.908 30.3179C284.403 30.5068 284.795 30.6689 285.071 30.7871C285.209 30.8463 285.317 30.8946 285.395 30.9298C285.434 30.9474 285.466 30.9617 285.489 30.9726L285.518 30.9862L285.529 30.991L285.532 30.9928ZM282.978 36.4219C282.978 36.4219 282.978 36.4219 282.978 36.4219Z" fill="#022C22"/>
<path fill-rule="evenodd" clip-rule="evenodd" d="M286.144 35H302V41H290.834L288.911 48.7246L283.089 47.2754L286.144 35Z" fill="#022C22"/>
<path d="M0.470713 2.18598C0.470717 1.08141 1.36615 0.1875 2.47071 0.1875H92.0001C93.1047 0.1875 94.0001 1.08174 94.0001 2.18631C94.0001 3.3665 94.0001 4.97487 94.0001 6.75C94.0001 8.67849 94.0001 10.5954 94.0001 11.9686C94.0001 13.0732 93.1047 13.9686 92.0001 13.9686H2.47071C1.36614 13.9686 0.470703 13.0745 0.470703 11.9699C0.470703 11.023 0.470703 9.76023 0.470703 8.22656C0.470703 6.14263 0.470709 3.80184 0.470713 2.18598ZM16.9948 19.2499C16.9948 18.1453 17.8902 17.2499 18.9948 17.2499H76.5991C77.7036 17.2499 78.5991 18.1453 78.5991 19.2499V89V92C78.5991 93.1046 77.7036 94 76.5991 94H18.9948C17.8902 94 16.9948 93.1046 16.9948 92V88.5V19.2499ZM26.2355 30.3749C24.2943 30.3749 22.7061 31.8515 22.7061 33.6561V79.5936C22.7061 81.3983 24.2943 82.8749 26.2355 82.8749C28.1767 82.8749 29.7649 81.3983 29.7649 79.5936V33.6561C29.7649 31.8515 28.1767 30.3749 26.2355 30.3749ZM47.412 30.3749C45.4708 30.3749 43.8826 31.8515 43.8826 33.6561V79.5936C43.8826 81.3983 45.4708 82.8749 47.412 82.8749C49.3532 82.8749 50.9414 81.3983 50.9414 79.5936V33.6561C50.9414 31.8515 49.3532 30.3749 47.412 30.3749ZM68.5884 30.3749C66.6473 30.3749 65.059 31.8515 65.059 33.6561V79.5936C65.059 81.3983 66.6473 82.8749 68.5884 82.8749C70.5296 82.8749 72.1179 81.3983 72.1179 79.5936V33.6561C72.1179 31.8515 70.5296 30.3749 68.5884 30.3749Z" fill="#022C22"/>
<path d="M224.463 85.5C222.197 87.1 220.063 88.4333 218.063 89.5C216.13 90.5667 213.963 91.3333 211.563 91.8C209.23 92.3333 206.397 92.6 203.063 92.6C197.663 92.6 192.83 91.4333 188.563 89.1C184.297 86.7667 180.897 83.3 178.363 78.7C175.897 74.1 174.663 68.3667 174.663 61.5C174.663 55.1667 175.863 49.7 178.263 45.1C180.663 40.4333 184.03 36.8333 188.363 34.3C192.697 31.7667 197.83 30.5 203.763 30.5C207.497 30.5 210.93 30.9667 214.063 31.9C217.263 32.8333 220.097 34.2667 222.563 36.2L225.063 47.6L217.363 49.4L215.463 41.1C213.93 40.1667 212.33 39.4333 210.663 38.9C208.997 38.3 206.763 38 203.963 38C200.563 38 197.33 38.9333 194.263 40.8C191.263 42.6667 188.83 45.3333 186.963 48.8C185.097 52.2667 184.163 56.5 184.163 61.5C184.163 66.9667 185.03 71.4333 186.763 74.9C188.497 78.3667 190.797 80.9333 193.663 82.6C196.53 84.2 199.63 85 202.963 85C206.03 85 208.463 84.7 210.263 84.1C212.13 83.5 214.03 82.6 215.963 81.4V69.2H203.163V61.6H224.463V85.5Z" fill="#022C22"/>
<path d="M101.9 32.1H125.1L149.4 77.6V39.9H141.2V32.1H167.7V39.9H158.1V91H147.3L119.7 39.9L119.9 83.2H128.3V91H101.8V83.2H111.2L111.1 39.9H101.9V32.1Z" fill="#022C22"/>
</svg>
