<svg width="113" height="119" viewBox="0 0 113 119" fill="none" xmlns="http://www.w3.org/2000/svg">
<path d="M56.3689 3.83568C54.1183 4.39332 38.8823 5.3238 36.8689 9.33568C34.8556 13.3476 30.7742 19.392 26.8689 25.8357C21.0765 26.4276 17.7814 28.5825 11.8689 33.8357C8.14423 38.1954 6.20643 40.769 3.86895 46.3357C2.70994 53.8152 2.71077 58.4492 3.86895 67.3357C6.76651 73.8517 11.8689 79.7068 11.8689 84.2712C11.8689 88.8357 20.5 101.336 23.3689 104.336C26.2379 107.336 36.1195 107.583 38.8689 105.836L45.3689 111.336C65.098 117.439 73.4684 117.632 79.8689 111.336C95.1743 112.274 96.3695 99.6379 98.7844 95.8357C102.68 91.7494 110.257 87.632 110.369 79.8357C110.481 72.0394 110.513 71.262 110.369 65.8357L102.869 53.3357C102.869 53.3357 104.823 48.2523 105.369 44.8357C106.047 40.5938 105.369 33.8357 105.369 33.8357C102.362 26.1375 99.6659 21.8519 92.8689 14.3357C90.4813 8.12641 84.113 6.30566 73.5 6.93258C69.6567 3.54136 64.6038 1.87837 56.3689 3.83568Z" stroke="#022C22" stroke-width="5"/>
</svg>
