<svg width="73" height="164" viewBox="0 0 73 164" fill="none" xmlns="http://www.w3.org/2000/svg">
<path d="M3.3999 48.5914C3.3999 44.3831 5.50765 40.7501 8.54173 39.099C8.54317 39.0982 8.54461 39.0974 8.54605 39.0966L15.3162 35.4537C15.3175 35.453 15.3189 35.4523 15.3202 35.4516C18.0348 34.0029 20.9684 33.25 23.9008 33.25H49.099C52.0312 33.25 54.9647 34.0028 57.6792 35.4514C57.6807 35.4522 57.6821 35.453 57.6836 35.4537L64.4611 39.1006C67.4641 40.7195 69.5999 44.3505 69.5999 48.5914C69.5999 52.4668 67.8484 55.7165 65.3862 57.4826L62.8342 59.3131L65.1904 61.3896C67.8221 63.7089 69.5999 67.4324 69.5999 71.75C69.5999 76.3773 67.5552 80.3263 64.6051 82.5739L62.0051 84.5548L64.5977 86.5454C67.5335 88.7995 69.5999 92.7566 69.5999 97.375C69.5999 102.002 67.5552 105.951 64.6051 108.199L62.0051 110.18L64.5977 112.17C67.5335 114.425 69.5999 118.382 69.5999 123C69.5999 127.627 67.5552 131.576 64.6051 133.824L62.0051 135.805L64.5977 137.795C67.5335 140.05 69.5999 144.007 69.5999 148.625C69.5999 156.076 64.4197 161.5 58.7499 161.5H14.2499C8.58013 161.5 3.3999 156.076 3.3999 148.625C3.3999 143.998 5.44462 140.049 8.39467 137.801L11.0048 135.812L8.39467 133.824C5.44462 131.576 3.3999 127.627 3.3999 123C3.3999 118.373 5.44462 114.424 8.39467 112.176L11.0048 110.188L8.39467 108.199C5.44462 105.951 3.3999 102.002 3.3999 97.375C3.3999 92.7477 5.44462 88.7987 8.39467 86.5511L11.0048 84.5625L8.39467 82.5739C5.44462 80.3263 3.3999 76.3773 3.3999 71.75C3.3999 67.4324 5.17771 63.7089 7.8094 61.3896L10.1656 59.3131L7.61358 57.4826C5.15138 55.7165 3.3999 52.4668 3.3999 48.5914ZM25.3749 2.5H47.6249C49.6234 2.5 51.7999 4.46489 51.7999 7.6875V18H21.1999V7.6875C21.1999 4.46489 23.3764 2.5 25.3749 2.5ZM16.1999 76.875C16.1999 80.7313 19.0019 84.5 23.1499 84.5H49.8499C53.9979 84.5 56.7999 80.7313 56.7999 76.875C56.7999 73.0187 53.9979 69.25 49.8499 69.25H23.1499C19.0019 69.25 16.1999 73.0187 16.1999 76.875ZM23.1499 110.25C19.0019 110.25 16.1999 114.019 16.1999 117.875C16.1999 121.731 19.0019 125.5 23.1499 125.5H49.8499C53.9979 125.5 56.7999 121.731 56.7999 117.875C56.7999 114.019 53.9979 110.25 49.8499 110.25H23.1499Z" stroke="#022C22" stroke-width="5"/>
</svg>
