<svg width="92" height="24" viewBox="0 0 92 24" fill="none" xmlns="http://www.w3.org/2000/svg">
<path d="M13.6684 3.31C11.6084 3.21 9.6284 3.37 7.7284 3.79C5.8284 4.21 3.9484 4.78 2.0884 5.5C1.6084 5.68 1.2384 5.66 0.978398 5.44C0.738398 5.22 0.618398 5 0.618398 4.78C0.758398 4.4 1.0084 4.09 1.3684 3.85C5.4684 1.85 9.5684 1.11 13.6684 1.63C13.8684 1.69 14.0284 1.84 14.1484 2.08C14.2884 2.3 14.3384 2.49 14.2984 2.65C14.2584 2.85 14.1984 3.02 14.1184 3.16C14.0384 3.28 13.8884 3.33 13.6684 3.31ZM9.4084 13.78C9.4084 14 9.3284 14.2 9.1684 14.38C9.0284 14.54 8.8484 14.64 8.6284 14.68C8.2284 14.74 7.9684 14.67 7.8484 14.47C7.7284 14.27 7.6584 14.04 7.6384 13.78C7.6184 12.38 7.5884 10.99 7.5484 9.61C7.5284 8.21 7.4684 6.81 7.3684 5.41C7.3684 5.33 7.3584 5.24 7.3384 5.14C7.3184 5.02 7.3184 4.91 7.3384 4.81C7.3584 4.69 7.3984 4.59 7.4584 4.51C7.5384 4.43 7.6584 4.37 7.8184 4.33C8.2784 4.25 8.6084 4.33 8.8084 4.57C9.0084 4.79 9.1084 5.01 9.1084 5.23C9.2684 6.67 9.3684 8.1 9.4084 9.52C9.4484 10.94 9.4484 12.36 9.4084 13.78ZM18.0533 5.35C18.1133 5.65 18.1733 5.99 18.2333 6.37C18.3133 6.73 18.3933 7.11 18.4733 7.51C18.5533 7.89 18.6233 8.28 18.6833 8.68C18.7433 9.08 18.7933 9.46 18.8333 9.82C19.0733 9.3 19.3333 8.75 19.6133 8.17C19.8933 7.59 20.1933 7.06 20.5133 6.58C20.8533 6.08 21.2033 5.67 21.5633 5.35C21.9433 5.03 22.3533 4.87 22.7933 4.87C23.4533 4.87 24.0033 5.11 24.4433 5.59C24.9033 6.07 25.2833 6.67 25.5833 7.39C25.9033 8.09 26.1533 8.83 26.3333 9.61C26.5133 10.39 26.6633 11.08 26.7833 11.68C26.9033 12.22 26.6633 12.62 26.0633 12.88C25.7833 13.02 25.5733 13.04 25.4333 12.94C25.2933 12.84 25.2133 12.74 25.1933 12.64C25.0933 12.4 24.9633 11.98 24.8033 11.38C24.6633 10.78 24.4933 10.17 24.2933 9.55C24.1133 8.93 23.9033 8.39 23.6633 7.93C23.4233 7.47 23.1533 7.26 22.8533 7.3C22.4933 7.32 22.1733 7.59 21.8933 8.11C21.6533 8.53 21.4033 9 21.1433 9.52C20.9033 10.02 20.6633 10.54 20.4233 11.08C20.1833 11.6 19.9433 12.13 19.7033 12.67C19.4833 13.19 19.2733 13.67 19.0733 14.11C18.9333 14.25 18.7533 14.35 18.5333 14.41C18.3333 14.45 18.1233 14.43 17.9033 14.35C17.7033 14.29 17.5433 14.19 17.4233 14.05C17.3033 13.91 17.2433 13.77 17.2433 13.63C17.0633 12.07 16.8733 10.65 16.6733 9.37C16.4933 8.09 16.2533 6.78 15.9533 5.44C15.8133 4.98 15.7833 4.62 15.8633 4.36C15.9633 4.08 16.2633 3.97 16.7633 4.03C17.4633 4.15 17.8933 4.59 18.0533 5.35ZM34.3082 6.97C34.4682 7.19 34.6182 7.47 34.7582 7.81C34.9182 8.13 35.0382 8.46 35.1182 8.8C35.2382 9.34 35.3682 9.93 35.5082 10.57C35.6682 11.19 35.8182 11.84 35.9582 12.52C36.1182 13.2 36.2582 13.89 36.3782 14.59C36.5182 15.29 36.6382 15.96 36.7382 16.6C36.8582 17.48 36.7882 18.32 36.5282 19.12C36.2882 19.94 35.8782 20.67 35.2982 21.31C34.7182 21.95 33.9982 22.46 33.1382 22.84C32.2782 23.22 31.3082 23.43 30.2282 23.47C29.9882 23.45 29.7382 23.33 29.4782 23.11C29.2182 22.91 29.0882 22.7 29.0882 22.48C29.0682 22.26 29.1682 22.08 29.3882 21.94C29.6282 21.82 29.8682 21.74 30.1082 21.7C30.5282 21.66 30.9582 21.57 31.3982 21.43C31.8582 21.31 32.2882 21.13 32.6882 20.89C33.0882 20.65 33.4482 20.36 33.7682 20.02C34.1082 19.68 34.3682 19.28 34.5482 18.82C34.6882 18.46 34.7582 18.02 34.7582 17.5C34.7582 16.96 34.7182 16.43 34.6382 15.91C34.5782 15.39 34.4882 14.9 34.3682 14.44C34.2682 13.96 34.1782 13.6 34.0982 13.36C33.9582 13.5 33.7782 13.65 33.5582 13.81C33.3582 13.97 33.1282 14.12 32.8682 14.26C32.6082 14.4 32.3182 14.51 31.9982 14.59C31.6982 14.67 31.3882 14.7 31.0682 14.68C30.7282 14.66 30.4082 14.54 30.1082 14.32C29.8282 14.1 29.5782 13.82 29.3582 13.48C29.1382 13.12 28.9582 12.71 28.8182 12.25C28.6982 11.79 28.6382 11.31 28.6382 10.81C28.6782 9.61 28.9782 8.55 29.5382 7.63C30.1182 6.69 31.0382 5.96 32.2982 5.44C32.3982 5.42 32.5282 5.4 32.6882 5.38C32.8682 5.36 33.0482 5.36 33.2282 5.38C33.4082 5.38 33.5782 5.4 33.7382 5.44C33.9182 5.48 34.0682 5.54 34.1882 5.62C34.4082 5.78 34.5182 6.01 34.5182 6.31C34.5182 6.61 34.4482 6.83 34.3082 6.97ZM30.5282 11.08C30.5282 11.3 30.5482 11.55 30.5882 11.83C30.6282 12.09 30.7582 12.28 30.9782 12.4C31.2182 12.54 31.5082 12.56 31.8482 12.46C32.2082 12.36 32.5382 12.19 32.8382 11.95C33.1182 11.73 33.2982 11.49 33.3782 11.23C33.4782 10.95 33.4782 10.58 33.3782 10.12C33.2782 9.66 33.1682 9.18 33.0482 8.68C32.9282 8.18 32.8482 7.73 32.8082 7.33C32.5682 7.45 32.3082 7.62 32.0282 7.84C31.7682 8.06 31.5282 8.34 31.3082 8.68C31.0882 9 30.8982 9.36 30.7382 9.76C30.5982 10.16 30.5282 10.6 30.5282 11.08ZM45.9142 4.78C46.5142 5 47.0142 5.33 47.4142 5.77C47.8342 6.21 48.1542 6.71 48.3742 7.27C48.5942 7.81 48.7142 8.37 48.7342 8.95C48.7742 9.53 48.7142 10.07 48.5542 10.57C48.3342 11.13 48.0542 11.68 47.7142 12.22C47.3742 12.76 46.9842 13.24 46.5442 13.66C46.1042 14.08 45.6042 14.42 45.0442 14.68C44.4842 14.94 43.8642 15.07 43.1842 15.07C42.3642 15.07 41.6742 14.88 41.1142 14.5C40.5542 14.12 40.1142 13.63 39.7942 13.03C39.4742 12.43 39.2642 11.75 39.1642 10.99C39.0842 10.23 39.1042 9.47 39.2242 8.71C39.3042 8.15 39.4342 7.61 39.6142 7.09C39.8142 6.55 40.0642 6.08 40.3642 5.68C40.6642 5.26 41.0042 4.92 41.3842 4.66C41.7842 4.4 42.2342 4.27 42.7342 4.27C43.0142 4.27 43.3642 4.33 43.7842 4.45C44.2042 4.55 44.5942 4.7 44.9542 4.9C45.2142 4.66 45.5342 4.62 45.9142 4.78ZM44.7742 6.97C44.5542 6.83 44.2942 6.65 43.9942 6.43C43.7142 6.19 43.4642 6.07 43.2442 6.07C43.0042 6.07 42.7642 6.18 42.5242 6.4C42.3042 6.62 42.1042 6.88 41.9242 7.18C41.7642 7.46 41.6242 7.75 41.5042 8.05C41.3842 8.35 41.3042 8.59 41.2642 8.77C41.2042 9.07 41.1642 9.43 41.1442 9.85C41.1242 10.27 41.1542 10.69 41.2342 11.11C41.3142 11.51 41.4642 11.88 41.6842 12.22C41.9242 12.54 42.2742 12.77 42.7342 12.91C43.0142 12.99 43.3442 12.99 43.7242 12.91C44.1042 12.81 44.4742 12.64 44.8342 12.4C45.2142 12.16 45.5642 11.84 45.8842 11.44C46.2242 11.04 46.4842 10.58 46.6642 10.06C46.8642 9.48 46.8642 8.88 46.6642 8.26C46.4842 7.62 46.1042 7.16 45.5242 6.88C45.3842 6.98 45.2442 7.03 45.1042 7.03C44.9642 7.03 44.8542 7.01 44.7742 6.97ZM69.6613 4.36C69.3413 4.9 69.0213 5.43 68.7013 5.95C68.3813 6.47 68.0313 7.07 67.6513 7.75C67.2913 8.41 66.8713 9.18 66.3913 10.06C65.9113 10.94 65.3513 12.01 64.7113 13.27C64.5513 13.57 64.3913 13.81 64.2313 13.99C64.0713 14.17 63.8813 14.26 63.6613 14.26C63.3613 14.26 63.1213 14.18 62.9413 14.02C62.7813 13.84 62.6413 13.65 62.5213 13.45C61.8613 12.35 61.2113 11.13 60.5713 9.79C59.9313 8.45 59.4113 7.14 59.0113 5.86C58.9713 5.76 58.9713 5.65 59.0113 5.53C59.0713 5.39 59.1513 5.3 59.2513 5.26C59.4513 5.16 59.7113 5.15 60.0313 5.23C60.2713 5.33 60.5113 5.51 60.7513 5.77C60.9913 6.03 61.1813 6.3 61.3213 6.58C61.4413 6.86 61.5813 7.18 61.7413 7.54C61.9013 7.9 62.0713 8.29 62.2513 8.71C62.4513 9.11 62.6513 9.51 62.8513 9.91C63.0513 10.31 63.2513 10.67 63.4513 10.99C63.7913 10.39 64.1513 9.75 64.5313 9.07C64.9313 8.37 65.3313 7.67 65.7313 6.97C66.1313 6.25 66.5313 5.56 66.9313 4.9C67.3513 4.24 67.7613 3.65 68.1613 3.13C68.2613 2.99 68.4013 2.91 68.5813 2.89C68.7613 2.87 68.9613 2.94 69.1813 3.1C69.6813 3.48 69.8413 3.9 69.6613 4.36ZM73.6002 14.98C73.2402 14.68 72.9802 14.32 72.8202 13.9C72.6602 13.46 72.5802 13.17 72.5802 13.03C72.3002 9.81 72.4302 6.66 72.9702 3.58C73.0702 3.16 73.1802 2.78 73.3002 2.44C73.4202 2.1 73.5402 1.93 73.6602 1.93C73.8002 1.93 73.9502 1.97 74.1102 2.05C74.2702 2.13 74.4102 2.23 74.5302 2.35C74.6502 2.47 74.7402 2.6 74.8002 2.74C74.8802 2.88 74.9202 3.01 74.9202 3.13C74.5202 5.09 74.3002 7.05 74.2602 9.01C74.2402 10.95 74.2902 12.89 74.4102 14.83C74.4102 15.03 74.3202 15.15 74.1402 15.19C74.0402 15.21 73.9402 15.2 73.8402 15.16C73.7602 15.1 73.6802 15.04 73.6002 14.98ZM79.7331 14.77C79.8331 15.49 79.5331 15.9 78.8331 16C78.4731 16.04 78.1731 15.94 77.9331 15.7C77.7131 15.46 77.5731 15.17 77.5131 14.83C77.4531 14.47 77.4731 14.12 77.5731 13.78C77.6931 13.44 77.9131 13.25 78.2331 13.21C78.6331 13.15 78.9731 13.3 79.2531 13.66C79.5331 14 79.6931 14.37 79.7331 14.77ZM91.8596 6.43C91.8596 6.89 91.7796 7.46 91.6196 8.14C91.4796 8.8 91.2396 9.47 90.8996 10.15C90.5596 10.83 90.1096 11.47 89.5496 12.07C89.0096 12.67 88.3396 13.13 87.5396 13.45C87.0396 13.67 86.5396 13.79 86.0396 13.81C85.5596 13.81 85.1196 13.71 84.7196 13.51C84.3396 13.31 84.0196 13.01 83.7596 12.61C83.4996 12.19 83.3396 11.65 83.2796 10.99C83.2196 10.21 83.2796 9.43 83.4596 8.65C83.6596 7.85 83.9596 7.11 84.3596 6.43C84.7796 5.73 85.2796 5.11 85.8596 4.57C86.4396 4.03 87.0896 3.6 87.8096 3.28C87.9696 3.2 88.1196 3.21 88.2596 3.31C88.4196 3.39 88.5196 3.57 88.5596 3.85C89.5996 3.95 90.4096 4.23 90.9896 4.69C91.5696 5.13 91.8596 5.71 91.8596 6.43ZM85.3196 10.93C85.3596 11.21 85.4396 11.41 85.5596 11.53C85.6796 11.65 85.8196 11.73 85.9796 11.77C86.1396 11.79 86.3196 11.77 86.5196 11.71C86.7196 11.65 86.9096 11.58 87.0896 11.5C87.2896 11.4 87.4696 11.3 87.6296 11.2C87.7896 11.08 87.9196 10.97 88.0196 10.87C88.5796 10.35 89.0296 9.72 89.3696 8.98C89.7096 8.22 89.9196 7.39 89.9996 6.49C89.9996 6.37 89.9196 6.25 89.7596 6.13C89.5996 6.01 89.3896 5.92 89.1296 5.86C88.8896 5.78 88.6196 5.72 88.3196 5.68C88.0196 5.64 87.7296 5.63 87.4496 5.65C87.1496 5.99 86.8596 6.36 86.5796 6.76C86.2996 7.16 86.0596 7.59 85.8596 8.05C85.6596 8.49 85.5096 8.96 85.4096 9.46C85.3096 9.94 85.2796 10.43 85.3196 10.93Z" fill="black"/>
</svg>
