<svg width="54" height="163" viewBox="0 0 54 163" fill="none" xmlns="http://www.w3.org/2000/svg">
<path d="M27.5063 3.0918L16.9282 3.57262C15.2602 3.8332 14.5788 4.28819 14.2837 6.21721C14.2939 7.95794 14.0402 8.88492 17.409 11.2659L15.2452 13.4297C14.0736 15.6754 15.1412 16.4989 16.9282 17.9976L13.0814 55.9833C6.99612 63.0437 4.70521 67.82 2.98413 78.1016L2.50269 150.707C3.98781 156.546 5.26009 159.379 11.8792 160.084H26.7848" stroke="#022C22" stroke-width="5"/>
<path d="M25.9607 3.01465L36.5395 3.49548C38.2068 3.75612 38.8882 4.21111 39.184 6.14006C39.1731 7.88086 39.4267 8.80777 36.0587 11.1888L38.2225 13.3526C39.3941 15.5983 38.3265 16.4218 36.5395 17.9205L40.3862 55.9063C46.4715 62.9662 48.7625 67.7432 50.4835 78.0248L50.9643 150.63C49.4792 156.468 48.2069 159.303 41.5878 160.006H26.6822" stroke="#022C22" stroke-width="5"/>
</svg>
