<svg width="640" height="640" viewBox="0 0 640 640" fill="none" xmlns="http://www.w3.org/2000/svg">
<rect width="640" height="640" fill="#BBF7D0"/>
<path fill-rule="evenodd" clip-rule="evenodd" d="M401 336.004C401 336.002 401 336 404 336C407 336 407 335.998 407 335.996L407 335.994L407 335.99C407 335.989 407 335.989 407 335.989C407 335.989 407 335.99 407 335.991L407.001 336.025C407.001 336.062 407.003 336.127 407.007 336.218C407.015 336.399 407.032 336.682 407.068 337.051C407.14 337.79 407.285 338.864 407.58 340.144C408.172 342.718 409.347 346.039 411.66 349.156C416.102 355.146 425.383 361.223 445.556 358.201L446.444 364.135C424.617 367.405 412.898 360.898 406.84 352.731C403.903 348.77 402.453 344.619 401.733 341.49C401.371 339.92 401.189 338.585 401.096 337.628C401.05 337.149 401.026 336.763 401.013 336.486C401.007 336.348 401.004 336.237 401.002 336.155C401.001 336.114 401.001 336.081 401 336.055L401 336.022L401 336.009L401 336.004Z" fill="#022C22"/>
<path fill-rule="evenodd" clip-rule="evenodd" d="M397.165 316.981L402.835 315.019L406.376 325.247L417.083 321.81L418.917 327.523L402.624 332.753L397.165 316.981Z" fill="#022C22"/>
<path fill-rule="evenodd" clip-rule="evenodd" d="M442.491 359.944L437.048 355.278L440.952 350.722L449.509 358.056L444.632 371.991L438.968 370.009L442.491 359.944Z" fill="#022C22"/>
<path fill-rule="evenodd" clip-rule="evenodd" d="M453.44 359.213C453.439 359.214 453.437 359.215 452.015 356.573C450.592 353.932 450.591 353.933 450.589 353.934L450.587 353.935L450.584 353.937C450.583 353.937 450.583 353.937 450.584 353.937C450.584 353.937 450.585 353.936 450.585 353.936L450.617 353.918C450.65 353.9 450.707 353.867 450.786 353.82C450.944 353.726 451.189 353.575 451.502 353.367C452.128 352.951 453.022 352.31 454.038 351.439C456.079 349.688 458.552 347.062 460.378 343.526C463.9 336.707 465.419 325.723 454.623 309.642L459.605 306.298C471.42 323.899 470.389 337.217 465.709 346.279C463.434 350.684 460.392 353.893 457.944 355.993C456.715 357.047 455.621 357.834 454.821 358.366C454.42 358.632 454.091 358.835 453.855 358.976C453.736 359.046 453.64 359.101 453.57 359.141C453.535 359.161 453.506 359.177 453.484 359.189L453.455 359.205L453.445 359.211L453.44 359.213Z" fill="#022C22"/>
<path fill-rule="evenodd" clip-rule="evenodd" d="M449.532 300.993C449.534 300.994 449.536 300.994 448.254 303.707C446.973 306.419 446.974 306.42 446.975 306.42L446.977 306.421C446.978 306.422 446.978 306.422 446.978 306.422L446.972 306.419L446.926 306.398C446.881 306.378 446.806 306.344 446.703 306.3C446.498 306.212 446.183 306.081 445.77 305.924C444.944 305.609 443.737 305.191 442.254 304.797C439.267 304.003 435.269 303.335 431.052 303.726C426.87 304.113 422.509 305.535 418.631 308.901C414.745 312.273 411.118 317.791 408.753 326.757L402.951 325.226C405.549 315.378 409.704 308.703 414.699 304.369C419.701 300.028 425.321 298.231 430.498 297.751C435.642 297.275 440.383 298.091 443.795 298.998C445.512 299.454 446.919 299.941 447.908 300.318C448.403 300.507 448.795 300.669 449.071 300.787C449.209 300.846 449.317 300.895 449.395 300.93C449.434 300.947 449.466 300.962 449.489 300.973L449.518 300.986L449.529 300.991L449.532 300.993ZM446.978 306.422C446.978 306.422 446.978 306.422 446.978 306.422L446.978 306.422Z" fill="#022C22"/>
<path fill-rule="evenodd" clip-rule="evenodd" d="M450.144 305H466V311H454.834L452.911 318.725L447.089 317.275L450.144 305Z" fill="#022C22"/>
<path d="M164.471 272.186C164.471 271.081 165.366 270.188 166.471 270.188H256C257.105 270.188 258 271.082 258 272.186C258 273.367 258 274.975 258 276.75C258 278.678 258 280.595 258 281.969C258 283.073 257.105 283.969 256 283.969H166.471C165.366 283.969 164.471 283.074 164.471 281.97C164.471 281.023 164.471 279.76 164.471 278.227C164.471 276.143 164.471 273.802 164.471 272.186ZM180.995 289.25C180.995 288.145 181.89 287.25 182.995 287.25H240.599C241.704 287.25 242.599 288.145 242.599 289.25V359V362C242.599 363.105 241.704 364 240.599 364H182.995C181.89 364 180.995 363.105 180.995 362V358.5V289.25ZM190.236 300.375C188.294 300.375 186.706 301.851 186.706 303.656V349.594C186.706 351.398 188.294 352.875 190.236 352.875C192.177 352.875 193.765 351.398 193.765 349.594V303.656C193.765 301.851 192.177 300.375 190.236 300.375ZM211.412 300.375C209.471 300.375 207.883 301.851 207.883 303.656V349.594C207.883 351.398 209.471 352.875 211.412 352.875C213.353 352.875 214.941 351.398 214.941 349.594V303.656C214.941 301.851 213.353 300.375 211.412 300.375ZM232.588 300.375C230.647 300.375 229.059 301.851 229.059 303.656V349.594C229.059 351.398 230.647 352.875 232.588 352.875C234.53 352.875 236.118 351.398 236.118 349.594V303.656C236.118 301.851 234.53 300.375 232.588 300.375Z" fill="#022C22"/>
<path d="M388.463 355.5C386.197 357.1 384.063 358.433 382.063 359.5C380.13 360.567 377.963 361.333 375.563 361.8C373.23 362.333 370.397 362.6 367.063 362.6C361.663 362.6 356.83 361.433 352.563 359.1C348.297 356.767 344.897 353.3 342.363 348.7C339.897 344.1 338.663 338.367 338.663 331.5C338.663 325.167 339.863 319.7 342.263 315.1C344.663 310.433 348.03 306.833 352.363 304.3C356.697 301.767 361.83 300.5 367.763 300.5C371.497 300.5 374.93 300.967 378.063 301.9C381.263 302.833 384.097 304.267 386.563 306.2L389.063 317.6L381.363 319.4L379.463 311.1C377.93 310.167 376.33 309.433 374.663 308.9C372.997 308.3 370.763 308 367.963 308C364.563 308 361.33 308.933 358.263 310.8C355.263 312.667 352.83 315.333 350.963 318.8C349.097 322.267 348.163 326.5 348.163 331.5C348.163 336.967 349.03 341.433 350.763 344.9C352.497 348.367 354.797 350.933 357.663 352.6C360.53 354.2 363.63 355 366.963 355C370.03 355 372.463 354.7 374.263 354.1C376.13 353.5 378.03 352.6 379.963 351.4V339.2H367.163V331.6H388.463V355.5Z" fill="#022C22"/>
<path d="M265.9 302.1H289.1L313.4 347.6V309.9H305.2V302.1H331.7V309.9H322.1V361H311.3L283.7 309.9L283.9 353.2H292.3V361H265.8V353.2H275.2L275.1 309.9H265.9V302.1Z" fill="#022C22"/>
</svg>
